<svg id="Слой_1" xmlns="http://www.w3.org/2000/svg" viewBox="0 0 512 512.5"><style>.st0{fill:#ff8155}.st1{fill:#fff}</style><path class="st0" d="M339.9.2c-.6.1-1.2.2-1.8.4-.1 0-.2 0-.3.1L170.6 75.9 11.9 9.1c-2.7-1.1-5.7-.8-8.1.8C1.4 11.4 0 14.1 0 17v418.1c0 3.4 2.1 6.5 5.2 7.9l162.1 68.3h.1c.7.2 1.4.4 2.1.4.4.1.8.2 1.2.2.4 0 .9-.1 1.3-.2.7-.1 1.3-.2 2-.5h.2l167-75.2 158.6 75.1c2.6 1.3 5.7 1.1 8.2-.5 2.5-1.6 4-4.3 4-7.2V85.2c0-3.3-1.9-6.3-4.9-7.7L345 .8c-.1-.1-.2 0-.3-.1-.6-.2-1.2-.4-1.8-.4-.5-.1-1-.2-1.5-.2-.5-.1-1 0-1.5.1zm155 90.4v399.2l-149.9-71c-.1-.1-.2 0-.3-.1-.6-.2-1.2-.4-1.8-.4-.5-.1-1-.2-1.5-.2s-1 .1-1.5.2c-.6.1-1.2.2-1.8.4-.1 0-.2 0-.3.1l-167.3 75.3-153.4-64.7V29.8l150.3 63.3h.1c.7.2 1.4.4 2.1.4.4.1.8.2 1.2.2.4 0 .9-.1 1.3-.2.7-.1 1.3-.2 2-.5h.2l167.1-75.2 153.5 72.8z"/><path class="st1" d="M179.2 119.4c0-4.7-3.8-8.5-8.5-8.5s-8.5 3.8-8.5 8.5v29.2L54.9 97.8c-2.6-1.3-5.7-1.1-8.2.5s-4 4.3-4 7.2v273.1c0 3.3 1.9 6.3 4.9 7.7l59.9 28.4.3.2 54.4 25.7v28.7c0 4.7 3.8 8.5 8.5 8.5s8.5-3.8 8.5-8.5v-28.6l63.2-28.5c4.2-2 6.1-7 4.2-11.2-1.9-4.3-6.9-6.2-11.2-4.3l-13.6 6.1V295.4c0-1.2-.3-2.4-.8-3.5v-.2c-.2-.3-.4-.7-.7-.9-.5-1.1-1.4-1.9-2.5-2.5-.4-.3-.9-.6-1.4-.9-.6-.2-1.2-.3-1.8-.4-.4-.1-.8-.2-1.3-.2h-.2c-.6.1-1.2.2-1.7.3-.5.1-1.1.2-1.6.4h-.2L179.1 302V167.6L290 117.7v78.5c0 4.7 3.8 8.5 8.5 8.5s8.5-3.8 8.5-8.5V110l25.6-11.5v135L295 251.4c-.4.2-.7.5-1 .8-.5.3-1 .7-1.5 1.1-.6.9-1.2 1.8-1.7 2.8-.2.6-.3 1.1-.3 1.7-.1.4-.2.9-.3 1.3V372l-12 5.4c-4.2 2-6.1 7-4.2 11.2 1.9 4.3 6.9 6.2 11.2 4.3l47.7-21.4v20.9c0 4.7 3.8 8.5 8.5 8.5s8.5-3.8 8.5-8.5v-20.7l107.3 50.8c2.6 1.3 5.7 1.1 8.2-.5 2.5-1.6 4-4.3 4-7.2v-273c0-3.3-1.9-6.3-4.9-7.7L349.9 79.8V42.6c0-4.7-3.8-8.5-8.5-8.5s-8.5 3.8-8.5 8.5v37.1l-153.6 69.1-.1-29.4zm128 145l25.6-12.1v100.5l-25.6 11.5v-99.9zm145.1 137l-102.4-48.5V252.3l102.4 48.5v100.6zm0-254.1v44l-41.9-19.8c-4.3-2-9.3-.2-11.4 4.1s-.2 9.3 4.1 11.4l49.2 23.3v71.8l-102.4-48.5V98.7l102.4 48.6zM204.8 410.4l-25.6 11.5V321l25.6-12.1v101.5zm-42.7 11.2l-42.7-20.2v-85.8c0-4.7-3.8-8.5-8.5-8.5s-8.5 3.8-8.5 8.5v77.7l-42.7-20.2V192.6l41.9 19.8c4.3 2 9.3.2 11.4-4.1.6-1.1.9-2.4.9-3.7 0-3.3-1.9-6.3-4.9-7.7l-49.2-23.3V119l102.4 48.5-.1 254.1z"/></svg>