<svg xmlns="http://www.w3.org/2000/svg" width="49" height="49" viewBox="0 0 49 49"><defs><style>.cls-1{fill:#fff;fill-rule:evenodd}</style></defs><path id="icon-techiology" class="cls-1" d="M660.5 1455a24.5 24.5 0 1 1 24.5-24.5 24.528 24.528 0 0 1-24.5 24.5zm0-46.8a22.3 22.3 0 1 0 22.3 22.3 22.322 22.322 0 0 0-22.3-22.3zm10.684 37.83a1.085 1.085 0 0 1-.8-.35l-12.863-13.61a1.1 1.1 0 0 1 .8-1.86h3.848l-11.25-11.45v26.1a1.1 1.1 0 0 1-2.2 0v-28.79a1.1 1.1 0 0 1 1.887-.77l14.978 15.24a1.1 1.1 0 0 1-.785 1.87h-3.92l9.207 9.75v-26.09a1.1 1.1 0 0 1 2.2 0v28.86a1.1 1.1 0 0 1-.694 1.02 1.155 1.155 0 0 1-.408.08z" transform="translate(-636 -1406)"/></svg>