<svg xmlns="http://www.w3.org/2000/svg" id="Capa_1" viewBox="0 0 512 512"><style id="style2">.st0{fill:#ff815c}</style><g id="g64"><path d="M476.5 46.4h-35.3V9.7c0-5.3-4.3-9.7-9.7-9.7s-9.7 4.3-9.7 9.7v36.8H371V9.7c0-5.3-4.3-9.7-9.7-9.7-5.3 0-9.7 4.3-9.7 9.7v36.8h-50.9V9.7c0-5.3-4.3-9.7-9.7-9.7-5.3 0-9.7 4.3-9.7 9.7v36.8h-50.9V9.7c0-5.3-4.3-9.7-9.7-9.7S211 4.3 211 9.7v36.8h-50.9V9.7c0-5.3-4.3-9.7-9.7-9.7S141 4.3 141 9.7v36.8H90.1V9.7c0-5.3-4.3-9.7-9.7-9.7s-9.7 4.3-9.7 9.7v36.8H35.5c-5.3 0-9.7 4.3-9.7 9.7v412.6c0 5.3 4.3 9.7 9.7 9.7h441.1c5.3 0 9.7-4.3 9.7-9.7V56.1c-.1-5.3-4.4-9.7-9.8-9.7zM70.8 65.8v26.4c0 5.3 4.3 9.7 9.7 9.7s9.7-4.3 9.7-9.7V65.8H141v26.4c0 5.3 4.3 9.7 9.7 9.7s9.7-4.3 9.7-9.7V65.8h50.9v26.4c0 5.3 4.3 9.7 9.7 9.7 5.3 0 9.7-4.3 9.7-9.7V65.8h50.9v26.4c0 5.3 4.3 9.7 9.7 9.7 5.3 0 9.7-4.3 9.7-9.7V65.8h50.9v26.4c0 5.3 4.3 9.7 9.7 9.7 5.3 0 9.7-4.3 9.7-9.7V65.8h50.9v26.4c0 5.3 4.3 9.7 9.7 9.7 5.3 0 9.7-4.3 9.7-9.7V65.8h25.7v89H45.1v-89h25.7zM45.1 459.1v-285h421.7v285H45.1z" id="path4"/><path d="M445 492.7H67c-5.3 0-9.7 4.3-9.7 9.7s4.3 9.7 9.7 9.7h378c5.3 0 9.7-4.3 9.7-9.7s-4.3-9.7-9.7-9.7z" id="path6"/><path class="st0" d="M162.7 209.3c-3.8-3.8-9.9-3.8-13.7 0l-5.5 5.5-5.5-5.5c-3.8-3.8-9.9-3.8-13.7 0-3.8 3.8-3.8 9.9 0 13.7l5.5 5.5-5.5 5.5c-3.8 3.8-3.8 9.9 0 13.7 1.9 1.9 4.4 2.8 6.8 2.8 2.5 0 5-.9 6.8-2.8l5.5-5.5 5.5 5.5c1.9 1.9 4.4 2.8 6.8 2.8 2.5 0 5-.9 6.8-2.8 3.8-3.8 3.8-9.9 0-13.7l-5.5-5.5 5.5-5.5c3.9-3.8 3.9-9.9.2-13.7z" id="path8"/><path class="st0" d="M106.4 209.3c-3.8-3.8-9.9-3.8-13.7 0l-5.5 5.5-5.5-5.5c-3.8-3.8-9.9-3.8-13.7 0-3.8 3.8-3.8 9.9 0 13.7l5.5 5.5L68 234c-3.8 3.8-3.8 9.9 0 13.7 1.9 1.9 4.4 2.8 6.8 2.8s5-.9 6.8-2.8l5.5-5.5 5.5 5.5c1.9 1.9 4.4 2.8 6.8 2.8 2.5 0 5-.9 6.8-2.8 3.8-3.8 3.8-9.9 0-13.7l-5.5-5.5 5.5-5.5c4-3.8 4-9.9.2-13.7z" id="path10"/><path class="st0" d="M218.9 209.3c-3.8-3.8-9.9-3.8-13.7 0l-5.5 5.5-5.5-5.5c-3.8-3.8-9.9-3.8-13.7 0-3.8 3.8-3.8 9.9 0 13.7l5.5 5.5-5.5 5.5c-3.8 3.8-3.8 9.9 0 13.7 1.9 1.9 4.4 2.8 6.8 2.8 2.5 0 5-.9 6.8-2.8l5.5-5.5 5.5 5.5c1.9 1.9 4.4 2.8 6.8 2.8 2.5 0 5-.9 6.8-2.8 3.8-3.8 3.8-9.9 0-13.7l-5.5-5.5 5.5-5.5c4-3.8 4-9.9.2-13.7z" id="path12"/><path class="st0" d="M387.6 209.3c-3.8-3.8-9.9-3.8-13.7 0l-5.5 5.5-5.5-5.5c-3.8-3.8-9.9-3.8-13.7 0-3.8 3.8-3.8 9.9 0 13.7l5.5 5.5-5.5 5.5c-3.8 3.8-3.8 9.9 0 13.7 1.9 1.9 4.4 2.8 6.8 2.8 2.5 0 5-.9 6.8-2.8l5.5-5.5 5.5 5.5c1.9 1.9 4.4 2.8 6.8 2.8 2.5 0 5-.9 6.8-2.8 3.8-3.8 3.8-9.9 0-13.7l-5.5-5.5 5.5-5.5c4-3.8 4-9.9.2-13.7z" id="path14"/><path class="st0" d="M443.9 209.3c-3.8-3.8-9.9-3.8-13.7 0l-5.5 5.5-5.5-5.5c-3.8-3.8-9.9-3.8-13.7 0s-3.8 9.9 0 13.7l5.5 5.5-5.5 5.5c-3.8 3.8-3.8 9.9 0 13.7 1.9 1.9 4.4 2.8 6.8 2.8 2.5 0 5-.9 6.8-2.8l5.5-5.5 5.5 5.5c1.9 1.9 4.4 2.8 6.8 2.8s5-.9 6.8-2.8c3.8-3.8 3.8-9.9 0-13.7l-5.5-5.5 5.5-5.5c4-3.8 4-9.9.2-13.7z" id="path16"/><path class="st0" d="M275.2 209.3c-3.8-3.8-9.9-3.8-13.7 0l-5.5 5.5-5.5-5.5c-3.8-3.8-9.9-3.8-13.7 0-3.8 3.8-3.8 9.9 0 13.7l5.5 5.5-5.5 5.5c-3.8 3.8-3.8 9.9 0 13.7 1.9 1.9 4.4 2.8 6.8 2.8 2.5 0 5-.9 6.8-2.8l5.5-5.5 5.5 5.5c1.9 1.9 4.4 2.8 6.8 2.8 2.5 0 5-.9 6.8-2.8 3.8-3.8 3.8-9.9 0-13.7l-5.5-5.5 5.5-5.5c3.9-3.8 3.9-9.9.2-13.7z" id="path18"/><path class="st0" d="M331.4 209.3c-3.8-3.8-9.9-3.8-13.7 0l-5.5 5.5-5.5-5.5c-3.8-3.8-9.9-3.8-13.7 0-3.8 3.8-3.8 9.9 0 13.7l5.5 5.5-5.5 5.5c-3.8 3.8-3.8 9.9 0 13.7 1.9 1.9 4.4 2.8 6.8 2.8 2.5 0 5-.9 6.8-2.8l5.5-5.5 5.5 5.5c1.9 1.9 4.4 2.8 6.8 2.8 2.5 0 5-.9 6.8-2.8 3.8-3.8 3.8-9.9 0-13.7l-5.5-5.5 5.5-5.5c4-3.8 4-9.9.2-13.7z" id="path20"/><path class="st0" d="M162.7 266.9c-3.8-3.8-9.9-3.8-13.7 0l-5.5 5.5-5.5-5.5c-3.8-3.8-9.9-3.8-13.7 0-3.8 3.8-3.8 9.9 0 13.7l5.5 5.5-5.5 5.5c-3.8 3.8-3.8 9.9 0 13.7 1.9 1.9 4.4 2.8 6.8 2.8 2.5 0 5-.9 6.8-2.8l5.5-5.5 5.5 5.5c1.9 1.9 4.4 2.8 6.8 2.8 2.5 0 5-.9 6.8-2.8 3.8-3.8 3.8-9.9 0-13.7l-5.5-5.5 5.5-5.5c3.9-3.8 3.9-9.9.2-13.7z" id="path22"/><path class="st0" d="M106.4 266.9c-3.8-3.8-9.9-3.8-13.7 0l-5.5 5.5-5.5-5.5c-3.8-3.8-9.9-3.8-13.7 0-3.8 3.8-3.8 9.9 0 13.7l5.5 5.5-5.5 5.5c-3.8 3.8-3.8 9.9 0 13.7 1.9 1.9 4.4 2.8 6.8 2.8s5-.9 6.8-2.8l5.5-5.5 5.5 5.5c1.9 1.9 4.4 2.8 6.8 2.8 2.5 0 5-.9 6.8-2.8 3.8-3.8 3.8-9.9 0-13.7l-5.5-5.5 5.5-5.5c4-3.8 4-9.9.2-13.7z" id="path24"/><path class="st0" d="M218.9 266.9c-3.8-3.8-9.9-3.8-13.7 0l-5.5 5.5-5.5-5.5c-3.8-3.8-9.9-3.8-13.7 0-3.8 3.8-3.8 9.9 0 13.7l5.5 5.5-5.5 5.5c-3.8 3.8-3.8 9.9 0 13.7 1.9 1.9 4.4 2.8 6.8 2.8 2.5 0 5-.9 6.8-2.8l5.5-5.5 5.5 5.5c1.9 1.9 4.4 2.8 6.8 2.8 2.5 0 5-.9 6.8-2.8 3.8-3.8 3.8-9.9 0-13.7l-5.5-5.5 5.5-5.5c4-3.8 4-9.9.2-13.7z" id="path26"/><path class="st0" d="M275.2 266.9c-3.8-3.8-9.9-3.8-13.7 0l-5.5 5.5-5.5-5.5c-3.8-3.8-9.9-3.8-13.7 0-3.8 3.8-3.8 9.9 0 13.7l5.5 5.5-5.5 5.5c-3.8 3.8-3.8 9.9 0 13.7 1.9 1.9 4.4 2.8 6.8 2.8 2.5 0 5-.9 6.8-2.8l5.5-5.5 5.5 5.5c1.9 1.9 4.4 2.8 6.8 2.8s5-.9 6.8-2.8c3.8-3.8 3.8-9.9 0-13.7l-5.5-5.5 5.5-5.5c3.9-3.8 3.9-9.9.2-13.7z" id="path28"/><path d="M433.7 397.5c-1.5-3.7-5.3-6.1-9.2-6-4.4.1-8.2 3.3-9.1 7.5-.9 3.9.8 8 4.1 10.2 3.8 2.5 9 2.1 12.2-1.2 2.6-2.6 3.5-7 2-10.5-.3-.6.2.6 0 0z" id="path30"/><path d="M92.6 393.1c-3.4-2.3-8.1-2.1-11.4.5-3.1 2.4-4.4 6.6-3.3 10.4 1.2 3.9 4.8 6.7 8.9 6.9 4 .2 7.8-2.3 9.3-6 1.9-4.3.3-9.2-3.5-11.8-.5-.3.6.4 0 0z" id="path32"/><path d="M377.4 397.5c-.5-1.2-1.2-2.2-2.1-3.1-3.5-3.4-9.1-3.8-13-.6-3.9 3.2-4.6 9.1-1.7 13.2 2.8 3.8 8 5 12.2 2.9 4.5-2.3 6.6-7.9 4.6-12.4-.2-.6.3.6 0 0z" id="path34"/><path d="M321.2 397.5c-2.5-6.2-11.1-8-15.8-3.1-3.7 3.6-3.7 10 0 13.7.4.5.9.9 1.5 1.2 3.4 2.4 8.1 2.1 11.3-.4 3.4-2.7 4.6-7.4 3-11.4-.3-.6.2.6 0 0z" id="path36"/><path d="M264.9 397.5c-1.5-3.6-5-6-8.9-6-4.2 0-8 2.8-9.3 6.9-2.6 8.4 7.1 15.7 14.5 11 3.9-2.5 5.5-7.6 3.7-11.9-.2-.6.3.6 0 0z" id="path38"/><path d="M205.1 393.1c-3.8-2.5-9-2.1-12.2 1.2-3.7 3.6-3.7 10.1 0 13.7 4.2 4.3 11.5 3.5 14.8-1.4 3-4.4 1.8-10.5-2.6-13.5-.5-.3.6.4 0 0z" id="path40"/><path d="M152.4 397.5c-.5-1.2-1.2-2.3-2.1-3.1-5.8-6-16.3-1.6-16.5 6.6-.2 8.5 10.5 13.2 16.5 7.1 2.8-2.7 3.6-7.1 2.1-10.6-.2-.6.3.6 0 0z" id="path42"/><path d="M433.7 339.9c-3.1-7.9-14.6-7.7-17.9 0-1.7 4-.4 8.6 2.9 11.3 3.1 2.5 7.5 2.7 10.9.7 4.1-2.4 5.9-7.6 4.1-12-.3-.6.2.6 0 0z" id="path44"/><path d="M96.2 339.9c-3.3-7.9-14.8-7.8-17.9.2-3.2 8.2 5.9 16.1 13.6 12 4.2-2.3 6.2-7.7 4.3-12.2-.3-.6.2.6 0 0z" id="path46"/><path d="M373.9 335.6c-7.3-4.8-17.1 2.2-14.7 10.6 1.1 3.9 4.6 6.8 8.6 7.1 4.2.3 8.2-2.2 9.7-6.2 1.6-4.2.1-9-3.6-11.5-.6-.4.5.3 0 0z" id="path48"/><path d="M321.2 339.9c-2.3-5.6-9.5-7.7-14.4-4.2-4.8 3.4-5.6 10.6-1.3 14.8 3.2 3.3 8.6 3.7 12.4 1.1 3.5-2.6 5-7.5 3.3-11.7-.3-.6.2.6 0 0z" id="path50"/><path d="M264.9 339.9c-1.5-3.6-5.2-6.1-9.2-6-4.3.1-8.1 3.1-9.1 7.3-2.1 8.6 7.9 15.4 15.1 10.2 3.6-2.6 4.9-7.4 3.2-11.5-.2-.6.3.6 0 0z" id="path52"/><path d="M205.1 335.6c-3.8-2.5-9-2.1-12.2 1.2-3.7 3.6-3.7 10 0 13.7 4.1 4.2 11.2 3.6 14.6-1.1 3.3-4.4 2.1-10.8-2.4-13.8-.5-.4.6.3 0 0z" id="path54"/><path d="M148.9 335.6c-6.7-4.6-16 1.2-15 9.2 1 7.7 10.9 11.4 16.4 5.7 4.4-4.3 3.5-11.6-1.4-14.9-.5-.4.5.3 0 0z" id="path56"/><path d="M430.1 278c-3.6-2.4-8.5-2.1-11.8.8-2.9 2.6-4 6.8-2.7 10.5 1.5 4 5.4 6.7 9.7 6.4 3.8-.2 7.2-2.8 8.5-6.4 1.5-4.2-.1-8.8-3.7-11.3-.5-.3.5.4 0 0z" id="path58"/><path d="M377.4 282.3c-1.6-3.9-5.7-6.4-9.9-5.9-4 .4-7.3 3.2-8.4 7-2.4 8.5 7.6 15.6 14.8 10.5 3.8-2.5 5.3-7.4 3.5-11.6-.2-.5.3.6 0 0z" id="path60"/><path d="M321.2 282.3c-2.5-6.2-11.1-8-15.8-3.1-5.4 5.2-2.5 14.6 4.7 16.3 7.5 1.7 14.1-6 11.1-13.2-.3-.5.2.6 0 0z" id="path62"/></g></svg>