<svg width="32" height="32" viewBox="0 0 32 32" fill="none" xmlns="http://www.w3.org/2000/svg">
<path d="M18.6679 18.666C18.6679 19.2183 18.2201 19.666 17.6679 19.666H11.6679C11.1156 19.666 10.6679 19.2183 10.6679 18.666C10.6679 18.1137 11.1156 17.666 11.6679 17.666H17.6679C18.2201 17.666 18.6679 18.1137 18.6679 18.666Z" fill="white"/>
<path d="M21.3345 13.3327C21.3345 13.885 20.8868 14.3327 20.3345 14.3327H11.6679C11.1156 14.3327 10.6679 13.885 10.6679 13.3327C10.6679 12.7804 11.1156 12.3327 11.6679 12.3327H20.3345C20.8868 12.3327 21.3345 12.7804 21.3345 13.3327Z" fill="white"/>
<path fill-rule="evenodd" clip-rule="evenodd" d="M25.8868 8.55164C26.3869 9.05174 26.6679 9.73002 26.6679 10.4373V26.666C26.6679 28.1388 25.474 29.3327 24.0012 29.3327H8.00123C6.52847 29.3327 5.33456 28.1388 5.33456 26.666V5.33268C5.33456 3.85992 6.52847 2.66602 8.00123 2.66602H18.8967C19.6039 2.66602 20.2821 2.94696 20.7823 3.44707L25.8868 8.55164ZM24.6679 10.4373V26.666C24.6679 27.0343 24.3695 27.3327 24.0012 27.3327H8.00123C7.63303 27.3327 7.33456 27.0343 7.33456 26.666V5.33268C7.33456 4.9645 7.63304 4.66602 8.00123 4.66602H18.8967C19.0735 4.66602 19.2431 4.73626 19.368 4.86128L24.4727 9.96586C24.5976 10.0909 24.6679 10.2605 24.6679 10.4373Z" fill="white"/>
</svg>
