<svg width="52" height="53" viewBox="0 0 52 53" fill="none" xmlns="http://www.w3.org/2000/svg">
<path d="M0.5 16.7559H10.0864C10.993 16.7559 11.4317 17.8654 10.7703 18.4854L4.53846 24.3273L8.46962 26.7352C11.7903 28.7693 11.9388 33.5401 8.75093 35.7766L8.20281 36.1612C5.44617 38.0952 1.65385 36.1233 1.65385 32.7559V32.7559" stroke="#FF8156" stroke-width="2" stroke-linejoin="round"/>
<rect x="28.5" y="15.7559" width="10" height="21" rx="5" stroke="#FF8156" stroke-width="2" stroke-linejoin="round"/>
<rect x="14.5" y="15.7559" width="10" height="21" rx="5" stroke="#FF8156" stroke-width="2" stroke-linejoin="round"/>
<path d="M40.5 27.7559H50.5" stroke="#FF8156" stroke-width="2" stroke-linejoin="round"/>
<path d="M45.5 32.7559L45.5 22.7559" stroke="#FF8156" stroke-width="2" stroke-linejoin="round"/>
<path d="M0.5 44.7559H13H25.5H38H50.5M50.5 8.75586H38H25.5H13H0.5M40.5 2.75586H10.5M40.5 50.7559H10.5" stroke="#FF8156" stroke-width="2" stroke-linejoin="round"/>
</svg>
