<svg id="Capa_1" xmlns="http://www.w3.org/2000/svg" viewBox="0 0 512 512"><style>.st0{fill:#ff815c}</style><path class="st0" d="M324.2 60.6c-2.2.8-4.7 1.8-7.6 2.9-3.9 1.5-8.8 3.4-14.9 5.7-26.5 9.9-54.6 24.6-81.8 38.8-1.5.7-3 1.1-4.6 1.1-3.6 0-7.1-2-8.9-5.4-2.6-4.9-.7-10.9 4.2-13.5 27.7-14.5 56.4-29.5 84.1-39.8 6-2.2 10.6-4 14.7-5.6 4.6-1.7 8.2-3.2 11.8-4.4l3 20.2zM152.6 162.5c1.4 4.2 5.3 6.9 9.5 6.9 1 0 2-.2 3.1-.5 22.5-7.2 45.8-18.7 68.3-29.8 2.6-1.3 5.2-2.6 7.8-3.8 15.9-7.8 32.9-15.8 49.6-22.2 14.3-5.4 26.1-9.6 37.3-12.2.4-.1 2.9-.9 4.7-1.3-1.7-6.5-3.2-12.9-4.7-19.2-2.1.5-3.8.9-5.1 1.3-12.2 2.9-24.6 7.2-39.4 12.8-17.4 6.6-34.9 14.9-51.3 22.9-2.6 1.3-5.2 2.6-7.8 3.8-22.9 11.3-44.5 21.9-65.6 28.7-5.2 1.7-8 7.3-6.4 12.6zM327.2 75.5c0-.1 0-.2-.1-.3 0 .1 0 .2.1.3zM377.3 221.3c-2.9-.9-5.3-3.1-6.4-6-1.7-4.5-3.6-9.4-5.5-14.5-57.3.1-114.5 28.8-169.8 56.7-57.9 29.2-117.8 59.3-174.8 54-5.5-.5-10.4 3.5-10.9 9s3.5 10.4 9 10.9c5.2.5 10.3.7 15.5.7 57.5 0 114.7-28.8 170.1-56.7 57.2-28.8 116.4-58.5 172.8-54.1zM319.7 21.9c-39.5 9.4-79.6 30.3-118.4 50.6-22.6 11.8-45.9 24.1-69.1 34-5 2.2-10.9-.1-13.1-5.2-2.2-5 .1-10.9 5.2-13.1 22.5-9.6 45.5-21.7 67.8-33.3C236 32 281.4 8.3 327.5 0c-4.2 1-7.5 4.6-7.7 9.1l-.1 12.8zM109 229.9c.7 0 1.4-.1 2.1-.2 32.3-7 65.2-23.4 100-40.8l2.9-1.4c23.3-11.6 44.4-21.9 66-30.2 19.8-7.6 35.2-12.2 50-15 .4-.1 7.9-1.6 14.5-2.5-2-6.4-4-12.9-5.9-19.4-5.3.8-10.1 1.6-12.5 2.2-16 3-32.4 7.9-53.3 15.9-22.4 8.6-43.9 19.1-67.7 31l-2.9 1.4c-33.7 16.8-65.5 32.7-95.3 39.2-5.4 1.2-8.8 6.5-7.7 11.9 1 4.7 5.2 7.9 9.8 7.9zM55.8 290.5c.5 0 1 0 1.5-.1 41.1-6.2 84-27.8 129.3-50.7 46.9-23.6 95.4-48.1 145.3-56.1.2 0 13.7-2.1 26.1-3.3-2.2-6.2-4.4-12.7-6.7-19.4-11.3 1.2-21.8 2.8-22.5 2.9-53 8.5-102.9 33.7-151.2 58-43.9 22.1-85.3 43-123.3 48.8-5.5.8-9.2 5.9-8.4 11.4.8 5 5 8.5 9.9 8.5z"/><path d="M465.6 302.7l-25.6-17v-34.6c0-5.5-4.5-10-10-10h-10v-19.5h20c4.1 0 7.9-2.6 9.3-6.4C469.7 162 503.5 64.4 500.4 9c-.3-5.3-4.7-9.4-10-9.4H329.6c-5.3 0-9.7 4.1-10 9.4-3.1 55.4 30.7 153 51.1 206.2 1.5 3.9 5.2 6.4 9.3 6.4h20v19.5h-10c-5.5 0-10 4.5-10 10v34.6l-25.5 17c-3.1 2.1-4.8 5.7-4.4 9.5 1.2 10.4 5.7 15.6 9 19.4 2.5 2.9 3.8 4.4 4.3 8.6.5 4.2-.4 5.9-2.2 9.4-2.3 4.5-5.6 10.6-4.4 20.9 1.2 10.3 5.7 15.6 9 19.4 2.5 2.9 3.8 4.4 4.3 8.6.5 4.2-.4 5.9-2.2 9.4-2.4 4.5-5.6 10.6-4.4 20.9 1.2 10.4 5.7 15.6 9 19.4 2.5 2.9 3.8 4.4 4.3 8.6.5 4.2-.4 5.9-2.2 9.4-2.3 4.4-5.5 10.4-4.4 20.6.8 12.4 20.6 24.7 40 24.7 19.5 0 39.4-12.5 40-24.9 1-10-2.1-16-4.4-20.4-1.8-3.4-2.7-5.1-2.2-9.3.5-4.2 1.8-5.7 4.3-8.6 3.3-3.8 7.8-9.1 9-19.4 1.2-10.4-2-16.5-4.4-20.9-1.8-3.4-2.7-5.1-2.2-9.4.5-4.2 1.7-5.7 4.3-8.6 3.3-3.8 7.8-9.1 9-19.4 1.2-10.3-2-16.5-4.4-20.9-1.8-3.4-2.7-5.1-2.2-9.4.5-4.2 1.7-5.7 4.3-8.6 3.3-3.8 7.8-9.1 9-19.4.1-3.8-1.6-7.5-4.7-9.6zM400 186.6v15h-13.1c-29.6-78.3-46.6-143.5-47.5-182.1h141.2c-.9 38.6-17.8 103.7-47.5 182.1H420v-15c0-5.5-4.5-10-10-10s-10 4.5-10 10zm0 74.5h20v20h-20v-20zm45.8 57.4c-3.3 3.8-7.8 9.1-9 19.4-1.2 10.4 2 16.5 4.4 20.9 1.8 3.4 2.7 5.1 2.2 9.4-.5 4.2-1.7 5.7-4.3 8.6-3.3 3.8-7.8 9.1-9 19.4-1.2 10.4 2 16.5 4.4 20.9 1.8 3.4 2.7 5.1 2.2 9.3-.5 4.2-1.8 5.7-4.3 8.6-3.3 3.8-7.8 9.1-9 19.4-1.2 10.3 2 16.5 4.4 20.9 1.6 3.1 2.5 4.8 2.3 8.3-2.3 2.6-10.4 7.7-20.2 7.7-9.8 0-17.8-5.1-20.2-7.7-.2-3.5.7-5.2 2.3-8.3 2.3-4.5 5.6-10.6 4.4-20.9-1.2-10.4-5.7-15.6-9-19.4-2.5-2.9-3.8-4.4-4.3-8.6-.5-4.2.4-5.9 2.2-9.3 2.4-4.5 5.6-10.6 4.4-20.9-1.2-10.4-5.7-15.6-9-19.4-2.5-2.9-3.8-4.4-4.3-8.6-.5-4.2.4-5.9 2.2-9.4 2.3-4.5 5.6-10.6 4.4-20.9-1.2-10.4-5.7-15.6-9-19.4-1.1-1.2-1.9-2.2-2.5-3.2l21.4-14.3h34l21.4 14.3c-.6 1-1.4 2-2.5 3.2z"/><circle class="st0" cx="410" cy="156.4" r="10"/></svg>