<svg width="52" height="53" viewBox="0 0 52 53" fill="none" xmlns="http://www.w3.org/2000/svg">
<path fill-rule="evenodd" clip-rule="evenodd" d="M41.8502 18.5601L50.6924 27.0339L49.3086 28.4778L45.0005 24.3493V47.7559C45.0005 48.3081 44.5528 48.7559 44.0005 48.7559H8.0005C7.44822 48.7559 7.0005 48.3081 7.0005 47.7559V24.3493L2.6924 28.4778L1.30859 27.0339L25.3086 4.03387C25.6954 3.66319 26.3056 3.66319 26.6924 4.03387L30.0176 7.22052C29.6765 7.85162 29.413 8.53076 29.2397 9.24518L26.0005 6.14092L9.0005 22.4326V46.7559H43.0005V22.4326L39.8609 19.4238C40.566 19.2204 41.2334 18.9282 41.8502 18.5601Z" fill="#FF8156"/>
<circle cx="37.5" cy="11.2559" r="8.5" stroke="#FF8156" stroke-width="2"/>
<path d="M33 10.4225L36.5 13.7559L42 7.75586" stroke="#FF8156" stroke-width="2"/>
<path d="M29.4361 23.456L19.4883 33.4038L22.4726 36.3882L27.3416 35.5767C28.0252 35.4627 28.7191 35.7109 29.1755 36.2324L33.552 41.2341C34.5547 42.3801 36.3176 42.4388 37.3944 41.3621C38.4711 40.2853 38.4124 38.5224 37.2664 37.5197L32.2647 33.1432C31.7431 32.6868 31.495 31.9929 31.609 31.3093L32.4205 26.4403L29.4361 23.456Z" stroke="#FF8156" stroke-width="2"/>
<path d="M19.4885 33.4036L13.0225 26.9375L16.0068 23.9532L19.4885 26.4401L17.0016 22.9584L19.4885 20.4714L24.4625 24.4505L20.4833 19.4766L22.9703 16.9897L29.4364 23.4558" stroke="#FF8156" stroke-width="2"/>
</svg>
