<svg width="52" height="53" viewBox="0 0 52 53" fill="none" xmlns="http://www.w3.org/2000/svg">
<path fill-rule="evenodd" clip-rule="evenodd" d="M9.5 45.7559C9.5 46.0211 9.60536 46.2754 9.79289 46.463C9.98043 46.6505 10.2348 46.7559 10.5 46.7559H43.5C44.0523 46.7559 44.5 46.3081 44.5 45.7559V5.75586C44.5 5.20357 44.0523 4.75586 43.5 4.75586H10.5C9.94772 4.75586 9.5 5.20358 9.5 5.75586L42.5 5.75586V6.75586V17.7009V44.7559H11.5V41.7559H9.5V45.7559Z" fill="#FF8156"/>
<path d="M4.5 41.7559L5.2086 39.9844C8.04349 32.8971 9.5 25.3341 9.5 17.7009L9.5 5.75586L42.5 5.75586L42.5 17.7009C42.5 25.3341 41.0435 32.8971 38.2086 39.9844L37.5 41.7559L4.5 41.7559Z" stroke="#FF8156" stroke-width="2" stroke-linejoin="round"/>
<path d="M30 19.7559V18.5059C30 15.8825 27.8734 13.7559 25.25 13.7559V13.7559C22.6266 13.7559 20.5 15.8825 20.5 18.5059V28.7559C20.5 31.5173 22.7386 33.7559 25.5 33.7559V33.7559C28.2614 33.7559 30.5 31.5173 30.5 28.7559V27.7213C30.5 24.979 28.2769 22.7559 25.5345 22.7559V22.7559C22.9664 22.7559 20.822 24.7142 20.5895 27.2718L20.5 28.2559" stroke="#FF8156" stroke-width="2" stroke-linejoin="round"/>
</svg>
