<svg id="Слой_1" xmlns="http://www.w3.org/2000/svg" viewBox="0 0 1264 532"><style>.st0{fill:#ff8155}</style><path class="st0" d="M812.8 87.5c-48.4-48.4-112.6-75-181-75s-132.7 26.6-181 75c-48.4 48.4-75 112.6-75 181 0 61.9 22.4 121.7 63 168.2 40.3 46.1 95.6 76.4 155.9 85.1 5.5.8 10.5-3 11.3-8.5.8-5.5-3-10.5-8.5-11.3-115.1-16.7-201.8-117.1-201.8-233.5 0-47.4 14.1-91.6 38.2-128.6l.1.1c13 14.1 29.2 25.3 46.9 32.5 1.2.5 2.5.7 3.8.7 3.9 0 7.7-2.4 9.3-6.2 2.1-5.1-.4-10.9-5.5-13-15-6.1-28.7-15.6-39.7-27.5l-2.9-3.2C489.1 68 556.4 32.5 631.8 32.5c62.8 0 120 24.7 162.3 64.9l-.6 1.6c-6.9 19.4-20.6 35.5-38.6 45.4-4.8 2.7-6.6 8.8-3.9 13.6 1.8 3.3 5.2 5.2 8.8 5.2 1.6 0 3.3-.4 4.8-1.2 19.9-11 35.5-28.1 44.7-48.6 36.4 41.5 58.4 95.9 58.4 155.3 0 100.4-64.4 188.8-155.9 222 4.9-22.2.9-45.6-11.3-65-2.9-4.7-9.1-6.1-13.8-3.1-4.7 2.9-6.1 9.1-3.1 13.8 10.3 16.4 13 36.5 7.4 55l-1.9 6.3c-7.7 1.9-15.5 3.5-23.5 4.6-5.5.8-9.3 5.9-8.5 11.3.7 5 5 8.6 9.9 8.6.5 0 1 0 1.4-.1 60.4-8.7 115.8-38.9 156.1-85 40.7-46.6 63.1-106.4 63.1-168.3.2-68.7-26.5-133-74.8-181.3z"/><path d="M631.9 504.5h-.3c-5.5 0-10 4.5-10 10s4.5 10 10 10h.3c5.5 0 10-4.5 10-10s-4.4-10-10-10zM822.1 195c-2-5.2-7.8-7.7-12.9-5.7-5.2 2-7.7 7.8-5.7 12.9 26.1 67.9 9.8 144.9-41.6 196.4-3.9 3.9-3.9 10.2 0 14.1 2 2 4.5 2.9 7.1 2.9s5.1-1 7.1-2.9c56.9-57 75-142.4 46-217.7z"/><path class="st0" d="M501.7 398.6c-52.9-52.9-68.5-131.7-39.8-200.8 2.1-5.1-.3-11-5.4-13.1-5.1-2.1-11 .3-13.1 5.4-15.3 36.8-19.5 77.1-12 116.5 7.6 40.3 27.1 77 56.2 106.1 2 2 4.5 2.9 7.1 2.9 2.6 0 5.1-1 7.1-2.9 3.8-3.9 3.8-10.2-.1-14.1z"/><path d="M704.9 78c-75.2-28.8-160.5-10.7-217.4 46.2-3.9 3.9-3.9 10.2 0 14.1 2 2 4.5 2.9 7.1 2.9 2.6 0 5.1-1 7.1-2.9C553 87 630 70.7 697.7 96.7c5.2 2 10.9-.6 12.9-5.8s-.5-10.9-5.7-12.9zM631.8 174.5c-51.8 0-94 42.2-94 94 0 5.5 4.5 10 10 10s10-4.5 10-10c0-40.8 33.2-74 74-74s74 33.2 74 74-33.2 74-74 74c-5.5 0-10 4.5-10 10s4.5 10 10 10c51.8 0 94-42.2 94-94s-42.2-94-94-94z"/><path class="st0" d="M671.8 258.5c-5.5 0-10 4.5-10 10 0 16.5-13.5 30-30 30s-30-13.5-30-30 13.5-30 30-30c5.5 0 10-4.5 10-10s-4.5-10-10-10c-27.6 0-50 22.4-50 50s22.4 50 50 50 50-22.4 50-50c0-5.6-4.5-10-10-10z"/><path d="M538.4 161c-3.9-3.9-10.2-3.9-14.1 0-49.1 49.1-58.7 125-23.5 184.7 1.9 3.2 5.2 4.9 8.6 4.9 1.7 0 3.5-.4 5.1-1.4 4.8-2.8 6.3-8.9 3.5-13.7-30.6-51.8-22.2-117.8 20.4-160.4 3.9-3.9 3.9-10.2 0-14.1z"/><path class="st0" d="M739.3 161c-3.9-3.9-10.2-3.9-14.1 0-3.9 3.9-3.9 10.2 0 14.1 51.5 51.5 51.5 135.2 0 186.7-42.6 42.6-108.6 51-160.4 20.4-4.8-2.8-10.9-1.2-13.7 3.5-2.8 4.8-1.2 10.9 3.5 13.7 24 14.2 50.7 21.1 77.1 21.1 39.3 0 78.2-15.3 107.6-44.6 59.2-59.2 59.2-155.6 0-214.9zM538.4 361.8l-.1-.1c-3.9-3.9-10.2-3.9-14.1 0s-3.9 10.2 0 14.1l.1.1c2 2 4.5 2.9 7.1 2.9 2.6 0 5.1-1 7.1-2.9 3.8-3.9 3.8-10.2-.1-14.1z"/><path d="M340.4 368.8h-54.5v-339c0-8.8 0-18.8-8.5-18.8-8 0-11 2.4-17.3 10.7L11.9 365.8l-.1.1c-.1.2-.2.4-.4.7-1 1.6-3.1 5-3.1 12.8C8.3 390 20 390 27.8 390h235.5v125.1c0 3.6 2.4 7.9 14 7.9 8.5 0 8.5-9.1 8.5-18.8V390h62.8c1.7 0 7.2-1 7.2-13.3 0-7.9-8.6-7.9-15.4-7.9zM263.3 52v316.7H35.2L263.3 52zM1239.9 368.8h-54.5v-339c0-8.8 0-18.8-8.5-18.8-8 0-11 2.4-17.3 10.7L911.4 365.8l-.1.1c-.1.2-.2.4-.4.7-1 1.6-3.1 5-3.1 12.8 0 10.6 11.7 10.6 19.5 10.6h235.5v125.1c0 3.6 2.4 7.9 14 7.9 8.5 0 8.5-9.1 8.5-18.8V390h62.8c1.7 0 7.2-1 7.2-13.3 0-7.9-8.6-7.9-15.4-7.9zM1162.8 52v316.7H934.7L1162.8 52z"/></svg>