<svg id="Слой_1" xmlns="http://www.w3.org/2000/svg" viewBox="0 0 470.2 125.1"><style>.st0{fill:#ff815c}</style><path class="st0" d="M0 104.9l6.7-15.6c.2.2.6.5 1 .9s1.4 1 2.9 1.9c1.5.9 3.1 1.7 4.8 2.4 1.7.7 3.9 1.3 6.7 1.9 2.7.6 5.6.9 8.5.9 6.4 0 11.4-1.7 15.1-5.2 3.7-3.5 5.5-7.7 5.5-12.7 0-4.9-1.9-8.7-5.7-11.4-3.8-2.7-9.3-4-16.5-4-1.7 0-3.6.1-5.6.4-2 .3-3.6.6-4.7.9l-1.7.4-4.8-12.2c.3-.3 2.6-2.4 6.7-6.3s9-8.4 14.5-13.5 9.9-9.1 13.1-11.9h-41V4.4h66.9v13.3c-13.7 12.9-25 23.5-33.8 31.8 22.2 2.1 33.2 12.3 33.2 30.4 0 10-3.5 18.2-10.6 24.6-7.1 6.4-17.1 9.6-30 9.6-3.9 0-7.7-.3-11.3-.9-3.6-.6-6.6-1.4-8.9-2.3-2.3-.9-4.4-1.8-6.1-2.7-1.7-.9-3-1.7-3.7-2.3l-1.2-1zM97.1 58.2c0-7.6 1.5-14.9 4.5-21.8s7-12.8 12.1-17.7c5.1-4.9 11.2-8.9 18.3-11.7s14.6-4.3 22.6-4.3c11 0 20.9 2.4 29.7 7.1 8.8 4.8 15.7 11.4 20.6 19.9s7.4 18 7.4 28.6c0 7.8-1.5 15.2-4.4 22.1-3 6.9-7 12.8-12.1 17.8-5.1 4.9-11.2 8.9-18.4 11.7-7.2 2.9-14.8 4.3-22.9 4.3-8.1 0-15.7-1.4-22.8-4.3-7.1-2.8-13.2-6.7-18.3-11.7-5.1-4.9-9.1-10.9-12-17.8S97.1 66 97.1 58.2zm20.5.3c0 7.1 1.6 13.6 4.9 19.5 3.3 5.9 7.8 10.6 13.4 14.1 5.7 3.4 12 5.2 18.8 5.2 6.9 0 13.2-1.7 18.8-5.1 5.7-3.4 10.1-8.1 13.4-14 3.3-5.9 4.9-12.5 4.9-19.7 0-11.1-3.5-20.3-10.5-27.7-7-7.4-15.9-11.1-26.7-11.1-10.6 0-19.5 3.7-26.5 11.1-7 7.4-10.5 16.6-10.5 27.7zM235.8 58.2c0-7.6 1.5-14.9 4.5-21.8s7-12.8 12.1-17.7c5.1-4.9 11.2-8.9 18.3-11.7 7.1-2.9 14.6-4.3 22.6-4.3 11 0 20.9 2.4 29.7 7.1 8.8 4.8 15.7 11.4 20.6 19.9s7.4 18 7.4 28.6c0 7.8-1.5 15.2-4.4 22.1-3 6.9-7 12.8-12.1 17.8-5.1 4.9-11.2 8.9-18.4 11.7-7.2 2.9-14.8 4.3-22.9 4.3-8.1 0-15.7-1.4-22.8-4.3-7.1-2.8-13.2-6.7-18.3-11.7-5.1-4.9-9.1-10.9-12-17.8-2.8-7-4.3-14.4-4.3-22.2zm20.5.3c0 7.1 1.6 13.6 4.9 19.5 3.3 5.9 7.8 10.6 13.4 14.1 5.7 3.4 12 5.2 18.8 5.2 6.9 0 13.2-1.7 18.8-5.1 5.7-3.4 10.1-8.1 13.4-14 3.3-5.9 4.9-12.5 4.9-19.7 0-11.1-3.5-20.3-10.5-27.7-7-7.4-15.9-11.1-26.7-11.1-10.6 0-19.5 3.7-26.5 11.1-6.9 7.4-10.5 16.6-10.5 27.7zM373.8 63.8V48.7h31.8V17h15v31.8h31.7v15.1h-31.7v31.8h-15V63.8h-31.8z"/><g><path d="M15.4 24.7h3.8l11.7 7.6-1.6 1.3h-.1l-13.8-8.9zm4.1 91c1 .2 2.6.4 4.9.6l12.6 8.3c-2.3-.4-4.4-1-6.3-1.6l-11.2-7.3zm2.3-48.1l2.9-.4 14.6 9.5c-.4 0-.9.2-1.6.3-.7.2-1.1.3-1.2.3l-14.7-9.7zm2-42.9h3.7l6.7 4.4c-.8.8-1.4 1.3-1.6 1.5l-8.8-5.9zm5 42h.3c.4 0 1 0 1.9.1.8.1 1.5.1 1.9.1l13.5 8.9-3.3.2-14.3-9.3zm.9 50.1h3.7l13.6 9.1-4.1-.3-13.2-8.8zM32 24.7h3.9l1.8 1.2-1.5 1.5-4.2-2.7zm5.6 91.8c.3 0 .6 0 1-.1.3 0 .7-.1 1.1-.2.4-.1.7-.1 1-.2l14.5 9.5c-1.4.2-2.5.3-3.4.3l-14.2-9.3zM39.5 68c3.1 1 5.4 2.6 6.9 4.6L39.5 68zm4.8 47.4c1.3-.2 2.2-.4 2.8-.6l14.9 9.8-3.1.4-14.6-9.6zM47 45.5l1.5-1.5 15.8 10.4-.4.4c-3.1-2.3-6.7-4.2-10.9-5.5l-6-3.8zm3.3 68.4l2.3-1 15.1 10c-1.1.4-1.9.7-2.4.8l-15-9.8zm.2-71.6c.8-.8 1.4-1.3 1.6-1.5l15.7 10.4-1.5 1.5-15.8-10.4zm3.3-3.3c.2-.1.7-.6 1.6-1.5L71.2 48l-1.6 1.5L53.8 39zm1.6 72.8c.3-.1.7-.3 1.1-.6.4-.3.7-.4.8-.5l15.5 10.1-2.2.9-15.2-9.9zm2-76c.8-.8 1.4-1.3 1.6-1.5l15.7 10.4-1.4 1.3-15.9-10.2zm2.4 73.3c.7-.3 1.3-.7 1.7-1.2L77.1 118c-.8.6-1.4 1-1.8 1.2l-15.5-10.1zm.9-76.6l1.6-1.3 15.8 10.3-1.6 1.5-15.8-10.5zm2.9 73.7l1.4-1.5L80.9 115l-1.6 1.3-15.7-10.1zm.6-77l1.6-1.3 15.7 10.3-1.6 1.5-15.7-10.5zm2.7 73.5l1.3-1.5 15.6 10.3c-.2.4-.6.9-1.2 1.5l-15.7-10.3zm.7-76.7l1.6-1.3L84.9 35l-1.6 1.3L67.6 26zm1.9 73l.9-1.9 15.8 10.5-1 1.6L69.5 99zM71 22.8l1.6-1.5 15.8 10.4-1.6 1.3L71 22.8zm.7 72.1c.1-.7.4-1.4.7-2L88 103.2l-.7 2-15.6-10.3zm.1-29.9l9.5 6.3c1.7 1.4 3.3 3.2 4.6 5.4l-13-8.5c-.5-1.8-.9-2.8-1.1-3.2zm1.4 25.3l.4-1.9 15.5 10.1-.4 2.1-15.5-10.3zm.6-18.6L88 81.1c0 .1.1.5.4 1.3.3.8.4 1.4.5 1.8l-14.5-9.7-.6-2.8zm.3 13.8c.2-1.2.4-2 .4-2.3l15.3 10.1c0 .3 0 .6-.1 1.2-.1.5-.1.9-.1 1.2L74.1 85.5zm.3-66.1l.7-1.7v-.3l15.2 10v2.3l-.2.2-15.7-10.5zm.2 60.8v-2.5l14.8 9.8c0 .5.1 1.4.3 2.6l-15.1-9.9zm.6-70.9V7l15.2 10.1v2.2l-15.2-10zm0 5v-2.4l15.2 10v2.4l-15.2-10zM120.4 58.4v-2.5l15.4 10.2c0 1-.1 1.8-.1 2.4l-15.3-10.1zm.1 3l15.1 10V74l-14.9-9.8c-.1-.6-.2-1.5-.2-2.8zm.2-8.2l.4-2.3 15.5 10.3-.4 2.2-15.5-10.2zm.6 14.4l14.6 9.7.6 2.8-14.2-9.4-1-3.1zm.4-19.3l.6-2.2 15.6 10.5-.7 1.9-15.5-10.2zm1.4-4.6l.9-1.9 15.7 10.3-.9 2-15.7-10.4zm.8 31.1l13.6 8.9c.4 1.5.8 2.6 1 3.2l-12.4-8.1c-.9-1.4-1.6-2.7-2.2-4zm1.3-35.3c.3-.4.6-1 1-1.8L142 48.1l-1 1.9-15.8-10.5zm2.5-3.8c.1-.3.3-.6.7-.9.3-.4.5-.6.6-.7l15.8 10.4-1.4 1.5-15.7-10.3zm3.1-3.5c.1-.1.2-.3.4-.5l.6-.6c.2-.2.4-.3.6-.5L148 41.1l-1.6 1.3-15.6-10.2zm.5 53l9.1 6.1.4.4c-3.3-1.4-6.4-3.6-9.5-6.5zm3.2-56.1l1.6-1.3L151.8 38l-1.6 1.3-15.7-10.2zm4.3-2.8l2.2-1 15.3 10.1-2.1 1.2-15.4-10.3zm.7 88.8c1.7.4 3.5.7 5.2.9l11.3 7.6c-2.2-.5-5-1.6-8.5-3.1l-8-5.4zm4.4-91c.2-.1.7-.2 1.3-.4.6-.2 1-.3 1.3-.4l15.1 10c-.4.1-1.3.4-2.5.8l-15.2-10zm6.3-1.3c1.4-.2 2.5-.3 3.4-.3l14.2 9.5c-1.8.3-2.8.4-2.9.4l-14.7-9.6zm.1 93.8c.8.1 2.1.2 3.8.2l13.5 8.8-4.6-.4-12.7-8.6zm8-94c1.9.1 3.6.4 5.1.9l12.4 8.2c-.6-.1-1.5-.2-2.6-.2h-1.4l-13.5-8.9zm.3 94l3.4-.3 14.2 9.4c-.7.1-1.7.2-3.1.2h-.4l-14.1-9.3zm7.2-.7l2.8-.6 14.9 9.7-3.2.4-14.5-9.5zm6.2-1.4c1.1-.4 1.9-.7 2.5-.8l15.1 9.9c-.3.1-.7.2-1.3.4-.6.1-1.1.3-1.3.4l-15-9.9zm5.6-1.8l2.5-.9 15.2 10-2.5.9-15.2-10zm5.1-2.2l2.1-1 15.4 10.1c-.5.3-1.2.7-2.2 1.1l-15.3-10.2zm4.5-2.4l2-1.3 15.5 10.1-2 1.3-15.5-10.1zm4.3-2.8l1.7-1.4 15.5 10.3c-.4.4-1 .8-1.7 1.2l-15.5-10.1zm3.8-3.1l1.6-1.4 15.7 10.3-1.6 1.3-15.7-10.2zm3.5-3.2l1.3-1.6 15.7 10.5-1.3 1.3L198.8 99zm3.1-3.5l1.2-1.6 15.8 10.5-1.2 1.5-15.8-10.4zm2-72.3l2.6 1.7c3.9 2.7 7.4 5.8 10.4 9.2l-10.3-6.8c-.2-.4-.5-.8-.8-1.3-.3-.5-.7-1-1.1-1.5-.3-.5-.6-1-.8-1.3zm.7 68.6c.1-.2.4-.4.6-.9.3-.4.5-.7.6-.9l15.8 10.4c-.1.2-.2.4-.4.6-.2.3-.3.5-.4.6-.1.2-.3.3-.4.5l-15.8-10.3zm2.6-3.9l1-1.8L224 96.5c-.4.7-.7 1.4-1.1 1.9l-15.7-10.5zm1.8-56.3l12.1 7.9c.6.8 1.4 2.2 2.4 4.2l-13-8.6-1.5-3.5zm.3 52.2l.7-1.8 15.8 10.3-.9 1.9-15.6-10.4zm1.9-4.2c0-.1.1-.4.3-.9.1-.4.2-.8.3-1.1L227.4 88c0 .2-.1.4-.3.9-.2.4-.3.8-.3 1.1l-15.6-10.4zm.9-40.6l13.6 9.1c.7 1.6 1.1 2.7 1.3 3.4l-14.2-9.4-.7-3.1zm.5 36.1c.2-.6.4-1.3.6-2.1l15.5 10.3-.4 2.2-15.7-10.4zm1.2-29.3l14.5 9.5c.1.7.3 1.6.7 2.8l-14.7-9.7-.5-2.6zm0 24.5l.5-2.3 15.4 10.3-.4 2.2-15.5-10.2zm.8-5c0-.2 0-.6.1-1.1 0-.5.1-.9.1-1.1l15.4 10.1v2.2l-15.6-10.1zm.1-13.4l14.7 9.7.4 2.8-15-10c0-.2 0-.7-.1-1.2.1-.6 0-1 0-1.3zm.2 8.2c0-.2 0-.5.1-.9 0-.4.1-.7.1-.9v-.6l15.1 10c.1.5.2 1.3.2 2.5l-15.5-10.1zM259.1 58.4v-2.5l15.4 10.2c0 1 0 1.8-.1 2.4l-15.3-10.1zm.2 3l15.1 10V74l-14.9-9.8c-.2-.6-.2-1.5-.2-2.8zm.1-8.2l.4-2.3 15.5 10.3-.4 2.2-15.5-10.2zm.6 14.4l14.6 9.7.6 2.8-14.2-9.5-1-3zm.4-19.3l.6-2.2 15.7 10.5-.7 1.9-15.6-10.2zm1.5-4.6l.9-1.9 15.7 10.3-.9 2-15.7-10.4zm.7 31.1l13.6 8.9c.4 1.5.8 2.6 1 3.2l-12.4-8.1c-.9-1.4-1.6-2.7-2.2-4zm1.3-35.3c.3-.4.6-1 1-1.8l15.8 10.4-1 1.9-15.8-10.5zm2.5-3.8c.1-.3.3-.6.7-.9.3-.4.5-.6.6-.7l15.8 10.4-1.4 1.5-15.7-10.3zm3.1-3.5c.1-.1.2-.3.4-.5l.6-.6c.2-.2.4-.3.6-.5l15.7 10.5-1.6 1.3-15.7-10.2zm.5 53l9.1 6.1.4.4c-3.2-1.4-6.4-3.6-9.5-6.5zm3.3-56.1l1.6-1.3L290.6 38l-1.6 1.3-15.7-10.2zm4.2-2.8l2.2-1L295 35.4l-2.1 1.2-15.4-10.3zm.8 88.8c1.7.4 3.5.7 5.2.9l11.3 7.6c-2.2-.5-5-1.6-8.5-3.1l-8-5.4zm4.3-91c.2-.1.7-.2 1.3-.4.6-.2 1-.3 1.3-.4l15.1 10c-.5.1-1.3.4-2.5.8l-15.2-10zm6.3-1.3c1.4-.2 2.5-.3 3.4-.3l14.2 9.5c-1.8.3-2.8.4-2.9.4l-14.7-9.6zm.2 93.8c.8.1 2.1.2 3.8.2l13.5 8.8-4.6-.4-12.7-8.6zm7.9-94c1.9.1 3.6.4 5.1.9l12.4 8.2c-.6-.1-1.5-.2-2.6-.2h-1.4L297 22.6zm.3 94l3.4-.3 14.2 9.4c-.7.1-1.7.2-3.1.2h-.4l-14.1-9.3zm7.2-.7l2.8-.6 14.9 9.7-3.2.4-14.5-9.5zm6.3-1.4c1.1-.4 1.9-.7 2.5-.8l15.1 9.9c-.3.1-.7.2-1.3.4-.6.1-1.1.3-1.3.4l-15-9.9zm5.5-1.8l2.5-.9 15.2 10-2.5.9-15.2-10zm5.1-2.2l2.1-1 15.4 10.1c-.5.3-1.2.7-2.2 1.1l-15.3-10.2zm4.6-2.4l2-1.3 15.5 10.1-2 1.3-15.5-10.1zm4.2-2.8l1.7-1.4 15.5 10.3c-.4.4-1 .8-1.7 1.2l-15.5-10.1zm3.8-3.1l1.6-1.4 15.6 10.3-1.6 1.3-15.6-10.2zm3.5-3.2l1.3-1.6 15.7 10.5-1.3 1.3L337.5 99zm3.1-3.5l1.2-1.6 15.8 10.5-1.2 1.5-15.8-10.4zm2.1-72.3l2.6 1.7c3.9 2.7 7.4 5.8 10.4 9.2l-10.3-6.8c-.2-.4-.5-.8-.8-1.3-.3-.5-.7-1-1.1-1.5-.3-.5-.6-1-.8-1.3zm.6 68.6c.2-.2.4-.4.6-.9.3-.4.5-.7.6-.9l15.8 10.4c-.1.2-.2.4-.4.6-.2.3-.3.5-.4.6-.1.2-.3.3-.4.5l-15.8-10.3zm2.6-3.9l1-1.8 15.8 10.4c-.4.7-.7 1.4-1.1 1.9l-15.7-10.5zm1.9-56.3l12.1 7.9c.6.8 1.4 2.2 2.4 4.2l-13-8.6-1.5-3.5zm.3 52.2l.7-1.8 15.8 10.3-.9 1.9-15.6-10.4zm1.8-4.2c0-.1.2-.4.3-.9s.2-.8.3-1.1L366.1 88c0 .2-.1.4-.3.9-.2.4-.3.8-.3 1.1l-15.6-10.4zm.9-40.6l13.6 9.1c.7 1.6 1.1 2.7 1.3 3.4l-14.2-9.4-.7-3.1zm.5 36.1c.3-.6.4-1.3.6-2.1l15.5 10.3-.4 2.2-15.7-10.4zm1.2-29.3l14.5 9.5c.1.7.3 1.6.7 2.8L353 48.4l-.5-2.6zm0 24.5l.5-2.3 15.4 10.3-.4 2.2-15.5-10.2zm.8-5c0-.2 0-.6.1-1.1s.1-.9.1-1.1l15.4 10.1v2.2l-15.6-10.1zm.2-13.4l14.7 9.7.4 2.8-15-10c0-.2 0-.7-.1-1.2v-1.3zm.1 8.2c0-.2 0-.5.1-.9 0-.4.1-.7.1-.9v-.6l15.1 10c.1.5.2 1.3.2 2.5l-15.5-10.1zM377.9 66.5h3.2l13.8 9.1h-3.4l-13.6-9.1zm6.5 0h3.4l13.8 9.1H398l-13.6-9.1zm7.9 0h3.9l6.6 4.4v2.5l-10.5-6.9zm8.5 0h2v1.3l-2-1.3zm8.9 31.9h3.1l13.6 9.1h-3.1l-13.6-9.1zm6.4 0h3.2l13.8 9.1h-3.4l-13.6-9.1zm7.2-77.3v-2.2L438.5 29v2.2l-15.2-10.1zm0 5.1v-2.5l15.2 10.1v2.3l-15.2-9.9zm0 5.5v-2.5l15.2 10.1v2.3l-15.2-9.9zm0 5.5v-2.5l15.2 10.1V46h-1.7l-13.5-8.8zm0 5.5v-2.5l8.8 5.8h-3.7l-5.1-3.3zm0 27.6v-2.5L438.5 78v2.3l-15.2-10zm0 5.6v-2.5l15.2 10.1v2.3l-15.2-9.9zm0 5.5V79l15.2 10.1v2.2l-15.2-9.9zm0 5.5v-2.5l15.2 10.1v2.3l-15.2-9.9zm0 5.5V90l15.2 10v2.5l-15.2-10.1zm0 5.6v-2.5l15.2 10.1v1.9h-.7L423.3 98zm2.6-31.5h3.7l13.6 9.1h-3.7l-13.6-9.1zm8.3 0h3.8l13.6 9.1H448l-13.8-9.1zm8.4 0h3.7l13.9 9.1h-3.9l-13.7-9.1zm8.3 0h3.8l13.6 9.1h-3.7l-13.7-9.1zm4.1-14v-1.8l15.2 10.1v1.8L455 52.5zm0 5.7v-2.5l15.2 10v2.5l-15.2-10zm0 5.6v-2.5l15.2 10v2.5l-15.2-10z"/></g></svg>