<svg id="Слой_1" xmlns="http://www.w3.org/2000/svg" viewBox="0 0 229.1 123.3"><style>.st0{fill:#ff815c}</style><path class="st0" d="M0 9.2c.2-.2.6-.6 1.2-1C1.7 7.8 3 7 4.9 6c1.9-1 4-2 6.2-2.8 2.2-.8 5.1-1.5 8.8-2.2 3.6-.7 7.4-1 11.4-1C44 0 53.8 3.2 60.7 9.5c6.9 6.4 10.4 14.6 10.4 24.6 0 7.2-1.3 13.9-3.9 20.3-2.6 6.3-7.2 13.2-14 20.5-1.8 1.9-4.4 4.4-7.8 7.2s-6.3 5.2-8.8 7.1L33 92.1h40.6v17.5H.8v-10c.6-.4 1.4-1.1 2.5-1.9s3.1-2.5 6.2-5 6-5 8.8-7.4c2.8-2.4 5.8-5.3 9.2-8.5 3.3-3.3 6.1-6.3 8.4-9.1 5.7-6.7 9.6-12.6 11.6-17.6 2-5 3-10.1 3-15.3 0-5-1.8-9.2-5.3-12.6-3.5-3.4-8.4-5.1-14.6-5.1-2.9 0-5.8.3-8.5.8s-4.9 1.2-6.7 1.9-3.4 1.5-4.8 2.2c-1.4.7-2.4 1.4-3 1.9l-1 .8L0 9.2zM95.8 55.6c0-7.6 1.5-14.9 4.5-21.8s7-12.8 12.1-17.7c5.1-4.9 11.2-8.9 18.3-11.7S145.3 0 153.3 0c11 0 20.9 2.4 29.7 7.1 8.8 4.8 15.7 11.4 20.6 19.9s7.4 18 7.4 28.6c0 7.8-1.5 15.2-4.4 22.1-3 6.9-7 12.8-12.1 17.8-5.1 4.9-11.2 8.9-18.4 11.7-7.2 2.9-14.8 4.3-22.9 4.3-8.1 0-15.7-1.4-22.8-4.3-7.1-2.8-13.2-6.7-18.3-11.7-5.1-4.9-9.1-10.9-12-17.8-2.9-6.9-4.3-14.3-4.3-22.1zm20.5.3c0 7.1 1.6 13.6 4.9 19.5 3.3 5.9 7.8 10.6 13.4 14.1s12 5.2 18.8 5.2c6.9 0 13.2-1.7 18.8-5.1 5.7-3.4 10.1-8.1 13.4-14 3.3-5.9 4.9-12.5 4.9-19.7 0-11.1-3.5-20.3-10.5-27.7-7-7.4-15.9-11.1-26.7-11.1-10.6 0-19.5 3.7-26.5 11.1-7 7.4-10.5 16.6-10.5 27.7z"/><g><path d="M4.9 112.4h2.9l13.6 9.1h-2.9l-13.6-9.1zm7.5 0h3.7l13.8 9.1h-3.8l-13.7-9.1zm.6-87.9l2.1-1 15.1 10c-.3.1-.7.3-1.2.6s-.8.4-.9.5L13 24.5zm4.9-2.3c1.1-.4 1.9-.7 2.5-.8l14.9 9.8-2.3 1-15.1-10zm2.8 90.2h3.8l13.7 9.1h-3.7l-13.8-9.1zm3-91.7s1.1-.1 3.1-.4l14.6 9.5c-1.3.2-2.3.4-2.9.6l-14.8-9.7zm5.4 91.7h3.7l13.8 9.1h-3.8l-13.7-9.1zm2.1-92.5c1.9.1 3.5.3 4.6.6l9.5 6.3 1.2 2.3c-.1 0-.4 0-.6.1-.3.1-.5.1-.6.1l-14.1-9.4zm6.3 92.5h3.7l13.6 9.1h-3.7l-13.6-9.1zm5.1-24.3c.6-.4 1.1-.8 1.6-1.3l4 2.6h-3.8l-1.8-1.3zm3.2 24.3h3.8l13.6 9.1h-3.7l-13.7-9.1zm.5-27.3l1.7-1.3 8.7 5.7h-4l-6.4-4.4zm3.5-3.3l1.7-1.3L65 89.4h-3.7l-11.5-7.6zm3.5-3.2l1.6-1.3 15.8 10.4-1.6 1.4-15.8-10.5zm1 33.8H58l13.8 9.1H68l-13.7-9.1zm2.2-37.1l1.3-1.5 15.9 10.4-1.4 1.6-15.8-10.5zm3-3.6c.1-.2.3-.6.7-.9.3-.4.5-.6.6-.7l15.9 10.6-1.3 1.5-15.9-10.5zm2.7-3.8l1-1.7 16.1 10.6c-.1.1-.3.4-.6.7-.3.4-.5.7-.6.9L62.2 67.9zm.3 44.5h3.8l13.7 9.1h-3.7l-13.8-9.1zm2.2-48.3l1-1.7L81.8 73l-1 1.6-16.1-10.5zm2.3-4l.9-1.8L84 68.8l-.9 1.9L67 60.1zm2-44.6l6.1 4c3.2 2.3 5.9 4.8 7.9 7.5l-12.3-8.1-1.7-3.4zm0 40.4l.9-1.9 15.9 10.6c-.1.3-.3.9-.7 2L69 55.9zm1.8-4.2c.2-.9.4-1.6.6-2.2l15.8 10.6-.4 2-16-10.4zm.2 60.7h3.7l13.8 9.1h-3.7L71 112.4zm.9-90.2l13.6 9c.9 2.1 1.4 3.2 1.4 3.4l-14.3-9.4c-.1-.5-.3-1.5-.7-3zm.3 24.7l.4-2.1 15.7 10.4-.3 2.2-15.8-10.5zm1-4.9l.3-2.2 15.3 10.1c0 1-.1 1.8-.1 2.3L73.2 42zm.1-13.3L88 38.5c.1.3.2.9.3 1.6.1.7.1 1.1.1 1.2l-14.8-9.8c0-.7-.1-1.6-.3-2.8zm.3 8.2c.1-.6.1-1.4.1-2.5l15.1 10v2.4l-15.2-9.9zm2.8 62.5v-2.5L91.5 107v2.3l-15.1-9.9zm0 5.5v-2.5l15.1 10v2.5l-15.1-10zm0 5.5v-2.5l15.1 10v2.4l-15.1-9.9zM119.6 55.8v-2.5L135 63.5c0 1-.1 1.8-.1 2.4l-15.3-10.1zm.2 3.1l15.1 10v2.6L120 61.7c-.2-.7-.2-1.6-.2-2.8zm.1-8.3l.4-2.3 15.5 10.3-.4 2.2-15.5-10.2zm.6 14.4l14.6 9.7.6 2.8-14.2-9.4-1-3.1zm.4-19.3l.6-2.2L137.2 54l-.7 1.9-15.6-10.2zm1.5-4.6l.9-1.9L139 49.5l-.9 2-15.7-10.4zm.8 31.1l13.6 8.9c.4 1.5.8 2.6 1 3.2l-12.4-8.1c-.9-1.4-1.7-2.7-2.2-4zm1.2-35.3c.3-.4.6-1 1-1.8l15.8 10.4-1 1.9-15.8-10.5zm2.6-3.8c.1-.2.3-.6.7-.9.3-.4.5-.6.6-.7L144 41.9l-1.4 1.5L127 33.1zm3-3.5c.1-.1.2-.3.4-.5l.6-.6c.2-.2.4-.3.6-.5l15.7 10.5-1.6 1.3L130 29.6zm.6 53.1l9.1 6.1.4.4c-3.3-1.5-6.5-3.6-9.5-6.5zm3.2-56.2l1.6-1.3 15.7 10.3-1.6 1.3-15.7-10.3zm4.3-2.8l2.2-1 15.3 10.1-2.1 1.2-15.4-10.3zm.7 88.8c1.7.4 3.5.7 5.2.9l11.3 7.6c-2.2-.5-5-1.6-8.5-3.1l-8-5.4zm4.3-90.9c.2-.1.7-.2 1.3-.4s1-.3 1.3-.4l15.1 10c-.4.1-1.3.4-2.5.8l-15.2-10zm6.3-1.4c1.4-.2 2.5-.3 3.4-.3l14.2 9.5c-1.8.3-2.8.4-2.9.4l-14.7-9.6zm.2 93.8c.8.1 2.1.1 3.8.1l13.5 8.8-4.6-.4-12.7-8.5zm7.9-93.9c1.9.1 3.6.4 5.1.9l12.4 8.2c-.6-.1-1.5-.1-2.6-.1H171l-13.5-9zm.3 93.9l3.4-.3 14.2 9.4c-.7.1-1.7.1-3.1.1h-.4l-14.1-9.2zm7.2-.7l2.8-.6 14.9 9.7-3.2.4-14.5-9.5zm6.3-1.4c1.1-.4 1.9-.7 2.5-.8l15.1 9.9c-.3.1-.7.2-1.3.4-.6.1-1.1.3-1.3.4l-15-9.9zm5.5-1.8l2.5-.9 15.2 10-2.5.8-15.2-9.9zm5.1-2.2l2.1-1 15.4 10.1c-.5.3-1.2.7-2.2 1.1l-15.3-10.2zm4.6-2.4l2-1.3 15.5 10.1-2 1.3-15.5-10.1zm4.3-2.8l1.7-1.4 15.5 10.3c-.4.4-1 .8-1.7 1.2l-15.5-10.1zm3.7-3l1.6-1.4 15.7 10.3-1.6 1.3-15.7-10.2zm3.5-3.3l1.3-1.6 15.7 10.5-1.3 1.3L198 96.4zm3.1-3.5l1.2-1.6 15.8 10.5-1.2 1.5-15.8-10.4zm2.1-72.2l2.6 1.7c3.9 2.7 7.4 5.8 10.4 9.2L206 24.8c-.2-.4-.5-.8-.8-1.3-.3-.5-.7-1-1.1-1.5-.4-.6-.7-1-.9-1.3zm.7 68.6c.1-.1.4-.4.6-.9.3-.4.5-.7.6-.9l15.8 10.4c-.1.1-.2.4-.4.6-.2.3-.3.5-.4.6-.1.2-.3.3-.4.5l-15.8-10.3zm2.5-3.9l1-1.8L223.2 94c-.4.7-.7 1.4-1.1 1.9l-15.7-10.5zm1.9-56.4l12.1 7.9c.6.8 1.4 2.2 2.4 4.2l-13-8.6-1.5-3.5zm.3 52.2l.7-1.8 15.8 10.3-.9 1.9-15.6-10.4zm1.9-4.2c0-.1.1-.4.3-.9.1-.4.2-.8.3-1.1l15.6 10.4c0 .1-.1.4-.3.9-.2.4-.3.8-.3 1.1L210.5 77zm.9-40.5l13.6 9.1c.7 1.6 1.1 2.7 1.3 3.4l-14.2-9.4-.7-3.1zm.4 36c.2-.6.4-1.3.6-2.1l15.5 10.3-.4 2.2-15.7-10.4zm1.2-29.3l14.5 9.5c.1.7.3 1.6.7 2.8l-14.7-9.7-.5-2.6zm0 24.6l.5-2.3L229 75.7l-.4 2.2L213 67.8zm.8-5.1c0-.2 0-.6.1-1.1 0-.5.1-.9.1-1.1l15.4 10.1v2.2l-15.6-10.1zm.2-13.4l14.7 9.7.4 2.8-15-10c0-.2 0-.7-.1-1.2v-1.3zm.1 8.2c0-.2 0-.5.1-.9 0-.4.1-.7.1-.9V55l15.1 10c.1.5.2 1.3.2 2.5l-15.5-10z"/></g></svg>